<svg width="1339" height="475" viewBox="0 0 1339 475" fill="none" xmlns="http://www.w3.org/2000/svg">
<rect width="1339" height="475" rx="20" fill="#2563EB"/>
<mask id="mask0_302_710" style="mask-type:alpha" maskUnits="userSpaceOnUse" x="0" y="0" width="1339" height="475">
<rect width="1339" height="475" rx="20" fill="#2563EB"/>
</mask>
<g mask="url(#mask0_302_710)">
<path opacity="0.2" d="M132.79 -125.373C161.376 -48.3279 131.602 55.2351 66.2373 105.927C0.872573 156.619 -75.2742 135.201 -103.861 58.1558C-132.447 -18.8894 -102.673 -122.452 -37.3082 -173.145C28.0565 -223.837 104.203 -202.418 132.79 -125.373Z" stroke="#F1F5F9" stroke-width="7"/>
<path d="M1467.75 536.989C1467.75 630.111 1404.47 704.519 1327.64 704.519C1250.8 704.519 1187.52 630.111 1187.52 536.989C1187.52 443.867 1250.8 369.459 1327.64 369.459C1404.47 369.459 1467.75 443.867 1467.75 536.989Z" stroke="white" stroke-width="7"/>
</g>
</svg>
