<svg width="723" height="621" viewBox="0 0 723 621" fill="none" xmlns="http://www.w3.org/2000/svg">
<line x1="419" y1="-8.74228e-08" x2="419" y2="486.478" stroke="#5B5B5B" stroke-width="4"/>
<line x1="608" y1="-8.74228e-08" x2="608" y2="415.41" stroke="#5B5B5B" stroke-width="4"/>
<line x1="95" y1="-8.74228e-08" x2="95" y2="453.482" stroke="#5B5B5B" stroke-width="4"/>
<line x1="249" y1="-8.74228e-08" x2="249" y2="493.247" stroke="#5B5B5B" stroke-width="4"/>
<path d="M503 569.284C503 578.127 500.363 586.523 495.09 594.473C489.816 602.35 481.599 608.74 470.437 613.644C459.362 618.548 445.036 621 427.458 621C418.669 621 410.935 620.666 404.255 619.997C397.663 619.328 391.511 618.251 385.798 616.765C380.085 615.204 374.152 613.198 368 610.746V571.514C378.459 575.972 389.006 579.39 399.641 581.768C410.275 584.071 419.899 585.223 428.513 585.223C433.698 585.223 437.917 584.703 441.169 583.662C444.509 582.622 446.97 581.21 448.552 579.427C450.134 577.569 450.925 575.452 450.925 573.074C450.925 570.25 449.738 567.873 447.365 565.941C445.08 563.935 441.389 561.854 436.291 559.699C431.193 557.545 424.47 554.87 416.12 551.675C409.001 548.851 402.541 545.953 396.74 542.981C391.027 540.009 386.105 536.628 381.975 532.839C377.932 528.975 374.812 524.479 372.614 519.352C370.417 514.225 369.318 508.17 369.318 501.185C369.318 490.708 372.351 481.94 378.415 474.882C384.567 467.748 393.093 462.399 403.991 458.832C414.978 455.265 427.634 453.482 441.96 453.482C454.528 453.482 465.822 454.671 475.842 457.049C485.949 459.426 495.002 462.139 503 465.185L487.048 499.179C478.786 495.984 470.656 493.458 462.658 491.6C454.66 489.668 447.233 488.702 440.378 488.702C435.896 488.702 432.204 489.185 429.304 490.151C426.491 491.043 424.382 492.269 422.976 493.829C421.657 495.389 420.998 497.173 420.998 499.179C420.998 501.705 422.141 503.972 424.426 505.978C426.799 507.984 430.71 510.176 436.159 512.554C441.696 514.857 449.211 517.866 458.703 521.582C468.107 525.148 476.105 529.012 482.697 533.173C489.289 537.26 494.299 542.201 497.727 547.996C501.242 553.718 503 560.814 503 569.284Z" fill="#EA4235"/>
<path d="M73.5739 494.236H146V570.974C137.353 573.506 127.444 575.583 116.272 577.207C105.1 578.765 93.3926 579.544 81.1494 579.544C65.0037 579.544 50.8475 576.882 38.6808 571.558C26.5142 566.235 17.0257 558.152 10.2154 547.31C3.40514 536.403 0 522.64 0 506.02C0 491.088 3.36688 478.201 10.1006 467.359C16.8344 456.452 26.7437 448.044 39.8286 442.136C52.99 436.164 69.0975 433.177 88.1509 433.177C98.6342 433.177 108.582 434.021 117.994 435.709C127.406 437.397 135.593 439.54 142.557 442.136L128.209 472.325C122.164 469.793 115.889 467.91 109.385 466.677C102.881 465.379 95.8795 464.729 88.3805 464.729C78.3564 464.729 70.2835 466.644 64.1619 470.475C58.1169 474.305 53.717 479.434 50.9623 485.861C48.2075 492.224 46.8302 499.268 46.8302 506.993C46.8302 515.823 48.2841 523.289 51.1918 529.392C54.1761 535.429 58.4995 540.039 64.1619 543.22C69.9009 546.336 76.826 547.894 84.9371 547.894C87.6153 547.894 90.8674 547.732 94.6934 547.407C98.5959 547.083 101.542 546.693 103.531 546.239V523.938H73.5739V494.236Z" fill="#4286F5"/>
<path d="M333 538.135C333 556.433 328.892 571.646 320.675 583.773C312.459 595.9 300.869 605.013 285.907 611.112C271.03 617.14 253.516 620.154 233.364 620.154H172V462.789H237.645C258.057 462.789 275.355 465.695 289.539 471.507C303.723 477.32 314.491 485.823 321.843 497.017C329.281 508.212 333 521.917 333 538.135ZM279.809 539.642C279.809 530.098 278.252 522.204 275.139 515.961C272.111 509.647 267.528 504.947 261.387 501.861C255.246 498.704 247.505 497.125 238.164 497.125H223.245V585.28H234.662C250.23 585.28 261.646 581.548 268.911 574.085C276.176 566.551 279.809 555.069 279.809 539.642Z" fill="#109D58"/>
<path d="M650.242 428.541C642.812 428.541 636.178 429.887 630.341 432.577C624.503 435.178 619.515 438.99 615.375 444.013C611.236 449.036 608.052 455.179 605.823 462.444C603.7 469.619 602.639 477.781 602.639 486.929C602.639 499.307 604.496 509.711 608.211 518.142C611.926 526.572 617.551 532.94 625.087 537.245C632.729 541.551 642.281 543.703 653.744 543.703C664.146 543.703 674.123 542.492 683.676 540.071C693.334 537.649 703.046 534.734 712.811 531.326V576.261C702.515 580.117 691.954 582.898 681.128 584.602C670.408 586.306 658.998 587.158 646.898 587.158C621.637 587.158 600.94 582.942 584.807 574.512C568.78 565.991 556.946 554.197 549.304 539.129C541.768 524.061 538 506.572 538 486.66C538 471.772 540.441 458.139 545.324 445.762C550.312 433.385 557.583 422.667 567.135 413.608C576.688 404.46 588.469 397.419 602.479 392.486C616.596 387.463 632.729 384.952 650.879 384.952C662.129 384.952 673.964 386.073 686.382 388.316C698.906 390.468 711.112 393.966 723 398.809L703.736 440.65C695.245 437.241 686.647 434.371 677.944 432.039C669.241 429.707 660.007 428.541 650.242 428.541Z" fill="#FABD03"/>
<ellipse cx="96" cy="443.33" rx="5" ry="5.07629" fill="#5B5B5B"/>
<ellipse cx="248" cy="472.941" rx="5" ry="5.07629" fill="#5B5B5B"/>
<ellipse cx="420" cy="465.327" rx="5" ry="5.07629" fill="#5B5B5B"/>
<ellipse cx="608" cy="402.719" rx="5" ry="5.07629" fill="#5B5B5B"/>
</svg>
