<svg width="42" height="234" viewBox="0 0 42 234" fill="none" xmlns="http://www.w3.org/2000/svg">
<path d="M40.6699 211.5C40.6699 223.693 31.6366 233.5 20.5849 233.5C9.53327 233.5 0.5 223.693 0.5 211.5C0.5 199.307 9.53327 189.5 20.5849 189.5C31.6366 189.5 40.6699 199.307 40.6699 211.5Z" stroke="#D4D4D8"/>
<path d="M29.7118 206.652C29.0957 206.951 28.4454 207.138 27.7608 207.25C28.4454 206.801 28.993 206.09 29.2326 205.23C28.5823 205.641 27.8635 205.941 27.0763 206.128C26.4601 205.417 25.5702 204.968 24.6118 204.968C22.7635 204.968 21.2574 206.614 21.2574 208.634C21.2574 208.934 21.2917 209.196 21.3601 209.458C18.5876 209.308 16.089 207.849 14.4118 205.604C14.1379 206.165 13.9668 206.764 13.9668 207.437C13.9668 208.709 14.5487 209.832 15.4728 210.505C14.9252 210.468 14.4118 210.318 13.9326 210.056V210.094C13.9326 211.889 15.0963 213.386 16.6366 213.723C16.3628 213.797 16.0547 213.835 15.7467 213.835C15.5413 213.835 15.3017 213.797 15.0963 213.76C15.5413 215.219 16.7735 216.304 18.2453 216.304C17.0816 217.277 15.644 217.875 14.0695 217.875C13.7957 217.875 13.5218 217.875 13.2822 217.838C14.7883 218.886 16.5339 219.484 18.4507 219.484C24.646 219.484 28.0347 213.872 28.0347 209.009C28.0347 208.859 28.0347 208.672 28.0347 208.522C28.685 208.036 29.2669 207.4 29.7118 206.652Z" fill="#109D58"/>
<ellipse cx="20.5849" cy="85.5" rx="20.5849" ry="22.5" fill="white"/>
<path d="M18.6864 95.631V86.7057H15.9385V83.2273H18.6864V80.6621C18.6864 77.6852 20.3498 76.0642 22.7794 76.0642C23.9432 76.0642 24.9434 76.1589 25.2349 76.2012V79.3123L23.5499 79.3131C22.2285 79.3131 21.9727 79.9994 21.9727 81.0065V83.2273H25.124L24.7136 86.7057H21.9727V95.631H18.6864Z" fill="#4286F5"/>
<path d="M40.6699 22.5C40.6699 34.6931 31.6366 44.5 20.5849 44.5C9.53327 44.5 0.5 34.6931 0.5 22.5C0.5 10.3069 9.53327 0.5 20.5849 0.5C31.6366 0.5 40.6699 10.3069 40.6699 22.5Z" stroke="#D4D4D8"/>
<path d="M20.5859 13.576C23.2454 13.576 23.5603 13.5869 24.6109 13.6393C25.2426 13.6477 25.8683 13.7745 26.4607 14.0141C26.8904 14.1952 27.2806 14.4726 27.6062 14.8285C27.9318 15.1845 28.1856 15.6109 28.3513 16.0806C28.5705 16.7281 28.6865 17.412 28.6942 18.1024C28.7417 19.2508 28.7521 19.595 28.7521 22.5019C28.7521 25.4087 28.7421 25.753 28.6942 26.9013C28.6865 27.5917 28.5705 28.2756 28.3513 28.9232C28.1856 29.3928 27.9318 29.8193 27.6062 30.1752C27.2806 30.5311 26.8904 30.8085 26.4607 30.9897C25.8683 31.2293 25.2426 31.356 24.6109 31.3645C23.5608 31.4163 23.2459 31.4277 20.5859 31.4277C17.926 31.4277 17.6111 31.4168 16.561 31.3645C15.9293 31.356 15.3036 31.2293 14.7112 30.9897C14.2815 30.8085 13.8913 30.5311 13.5657 30.1752C13.2401 29.8193 12.9863 29.3928 12.8206 28.9232C12.6014 28.2756 12.4854 27.5917 12.4777 26.9013C12.4302 25.753 12.4198 25.4087 12.4198 22.5019C12.4198 19.595 12.4298 19.2508 12.4777 18.1024C12.4854 17.412 12.6014 16.7281 12.8206 16.0806C12.9863 15.6109 13.2401 15.1845 13.5657 14.8285C13.8913 14.4726 14.2815 14.1952 14.7112 14.0141C15.3036 13.7745 15.9293 13.6477 16.561 13.6393C17.6116 13.5874 17.9265 13.576 20.5859 13.576V13.576ZM20.5859 11.6143C17.8824 11.6143 17.5418 11.6267 16.4794 11.6796C15.6527 11.6976 14.8348 11.8686 14.0604 12.1856C13.3962 12.4591 12.7945 12.8878 12.2974 13.4417C11.7902 13.9852 11.3977 14.6433 11.1472 15.3698C10.8573 16.2162 10.7007 17.1102 10.6843 18.0138C10.6369 19.174 10.6255 19.5463 10.6255 22.5014C10.6255 25.4564 10.6369 25.8287 10.6853 26.9899C10.7017 27.8936 10.8582 28.7876 11.1482 29.634C11.3983 30.3604 11.7905 31.0184 12.2974 31.562C12.7948 32.116 13.3968 32.5447 14.0614 32.8182C14.8357 33.1351 15.6536 33.3062 16.4803 33.3242C17.5428 33.376 17.8819 33.3895 20.5869 33.3895C23.2919 33.3895 23.631 33.377 24.6934 33.3242C25.5201 33.3062 26.3381 33.1351 27.1124 32.8182C27.7739 32.5379 28.3745 32.1099 28.876 31.5614C29.3775 31.0129 29.7687 30.3561 30.0247 29.6329C30.3146 28.7865 30.4711 27.8925 30.4876 26.9889C30.535 25.8287 30.5464 25.4564 30.5464 22.5014C30.5464 19.5463 30.535 19.174 30.4866 18.0128C30.4702 17.1092 30.3137 16.2151 30.0237 15.3688C29.7736 14.6423 29.3814 13.9843 28.8745 13.4407C28.3771 12.8867 27.7751 12.458 27.1105 12.1845C26.3362 11.8676 25.5182 11.6965 24.6916 11.6785C23.6301 11.6267 23.2895 11.6143 20.5859 11.6143Z" fill="#EA4235"/>
<path d="M20.5881 16.9126C19.5764 16.9126 18.5875 17.2405 17.7464 17.8548C16.9052 18.4691 16.2496 19.3423 15.8625 20.3639C15.4754 21.3855 15.3741 22.5096 15.5714 23.5941C15.7688 24.6786 16.2559 25.6748 16.9713 26.4567C17.6866 27.2385 18.598 27.771 19.5902 27.9867C20.5824 28.2025 21.6108 28.0917 22.5455 27.6686C23.4801 27.2454 24.279 26.5289 24.841 25.6095C25.403 24.6901 25.703 23.6091 25.703 22.5034C25.703 21.0206 25.1641 19.5986 24.2049 18.5501C23.2456 17.5016 21.9446 16.9126 20.5881 16.9126ZM20.5881 26.1324C19.9314 26.1324 19.2895 25.9196 18.7435 25.5208C18.1975 25.122 17.772 24.5553 17.5207 23.8922C17.2694 23.229 17.2036 22.4994 17.3317 21.7954C17.4598 21.0914 17.776 20.4448 18.2404 19.9373C18.7047 19.4297 19.2963 19.0841 19.9403 18.9441C20.5844 18.8041 21.252 18.8759 21.8586 19.1506C22.4653 19.4253 22.9839 19.8904 23.3487 20.4872C23.7135 21.084 23.9082 21.7856 23.9082 22.5034C23.9082 23.4659 23.5584 24.3889 22.9358 25.0695C22.3131 25.7501 21.4686 26.1324 20.5881 26.1324V26.1324Z" fill="#EA4235"/>
<path d="M25.9038 17.9969C26.5639 17.9969 27.099 17.412 27.099 16.6905C27.099 15.969 26.5639 15.384 25.9038 15.384C25.2436 15.384 24.7085 15.969 24.7085 16.6905C24.7085 17.412 25.2436 17.9969 25.9038 17.9969Z" fill="#EA4235"/>
<path d="M40.6699 148.5C40.6699 160.693 31.6366 170.5 20.5849 170.5C9.53327 170.5 0.5 160.693 0.5 148.5C0.5 136.307 9.53327 126.5 20.5849 126.5C31.6366 126.5 40.6699 136.307 40.6699 148.5Z" stroke="#D4D4D8"/>
<path fill-rule="evenodd" clip-rule="evenodd" d="M21.4774 137.614C16.1975 137.614 11.9497 142.257 11.9497 148.028C11.9497 152.628 14.6889 156.533 18.4603 157.922C18.9367 158.008 19.0955 157.705 19.0955 157.401C19.0955 157.14 19.0955 156.49 19.0955 155.622C16.4357 156.273 15.8799 154.233 15.8799 154.233C15.4432 153.018 14.808 152.714 14.808 152.714C13.9347 152.064 14.8874 152.064 14.8874 152.064C15.8402 152.15 16.3563 153.148 16.3563 153.148C17.19 154.754 18.5794 154.277 19.1352 154.016C19.2146 153.322 19.4528 152.888 19.7307 152.628C17.6266 152.367 15.4035 151.456 15.4035 147.464C15.4035 146.336 15.7608 145.381 16.396 144.687C16.3166 144.427 15.9593 143.385 16.4754 141.91C16.4754 141.91 17.2694 141.649 19.0955 142.995C19.8498 142.778 20.6835 142.648 21.4774 142.648C22.2714 142.648 23.1051 142.778 23.8594 142.995C25.6855 141.649 26.4795 141.91 26.4795 141.91C26.9956 143.342 26.678 144.383 26.5589 144.687C27.1544 145.425 27.5514 146.336 27.5514 147.464C27.5514 151.456 25.3282 152.324 23.1845 152.584C23.5418 152.888 23.8197 153.539 23.8197 154.494C23.8197 155.882 23.8197 157.01 23.8197 157.357C23.8197 157.618 23.9785 157.965 24.4946 157.878C28.266 156.533 31.0052 152.628 31.0052 148.028C31.0052 142.257 26.7574 137.614 21.4774 137.614Z" fill="#FFE000"/>
</svg>
